#!OML:ASF F:\VICON\USERDATA\INSTALL\rory3\rory3.ASF
:FULLY-SPECIFIED
:DEGREES
169
root 12.0049 17.6354 -13.1357 -120.03 87.1788 -118.206
lowerback 11.823 0.367516 -1.85813
upperback 1.33779 0.397462 1.61204
thorax -5.25268 0.275843 2.67396
lowerneck -12.3083 -9.32782 -13.8887
upperneck 33.4723 -13.7358 13.7024
head 16.0479 -5.54682 5.94639
rclavicle 4.56234e-015 3.42904e-015
rhumerus -34.403 -17.9746 -72.9982
rradius 33.8867
rwrist 3.58252
rhand -15.8775 8.35798
rfingers 7.12502
rthumb 10.3184 -21.3689
lclavicle 4.56234e-015 3.42904e-015
lhumerus -32.3511 7.70586 83.6922
lradius 26.2363
lwrist -10.1031
lhand -15.9473 25.0992
lfingers 7.12502
lthumb 10.251 54.8294
rfemur -12.6236 -5.90234 25.5145
rtibia 37.5745
rfoot -19.6687 3.24944
rtoes 4.62911
lfemur -10.4876 -7.28083 -19.1566
ltibia 33.8069
lfoot -17.5989 -7.87691
ltoes 5.81657
170
root 11.9986 17.6325 -13.083 -120.576 87.233 -118.891
lowerback 11.821 0.26993 -2.06253
upperback 1.29892 0.231869 1.48503
thorax -5.28255 0.197109 2.68321
lowerneck -12.3105 -9.31774 -13.4972
upperneck 33.4168 -13.8153 13.6641
head 15.9914 -5.53623 5.83823
rclavicle 1.73937e-015 -6.01324e-015
rhumerus -34.5035 -18.3632 -73.2259
rradius 34.0366
rwrist 3.55436
rhand -15.648 8.22997
rfingers 7.12502
rthumb 10.5398 -21.4858
lclavicle 1.73937e-015 -6.01324e-015
lhumerus -32.2609 7.42742 83.4728
lradius 26.0723
lwrist -9.94636
lhand -15.9137 24.7737
lfingers 7.12502
lthumb 10.2834 54.5023
rfemur -13.1827 -7.05513 25.4894
rtibia 38.2065
rfoot -19.5889 4.53547
rtoes 4.56259
lfemur -10.7521 -6.98553 -18.9383
ltibia 33.883
lfoot -17.6902 -8.43894
ltoes 5.98534
171
root 11.9875 17.6312 -13.0291 -123.541 87.4609 -121.934
lowerback 11.9313 0.24272 -2.43519
upperback 1.28063 0.131671 1.27998
thorax -5.3571 0.15428 2.69553
lowerneck -12.2412 -9.35123 -13.341
upperneck 33.2468 -13.9841 13.8853
head 15.9338 -5.56823 5.86725
rclavicle 1.2424e-017 -1.98785e-015
rhumerus -34.6234 -18.9214 -73.3773
rradius 34.1812
rwrist 3.56473
rhand -15.3216 8.16796
rfingers 7.12502
rthumb 10.8545 -21.5315
lclavicle 1.2424e-017 -1.98785e-015
lhumerus -32.1079 6.81681 83.3835
lradius 25.9611
lwrist -9.49381
lhand -15.9907 24.5819
lfingers 7.12502
lthumb 10.2091 54.3141
rfemur -13.6848 -7.77783 25.2491
rtibia 38.8879
rfoot -19.4827 5.6328
rtoes 4.9896
lfemur -10.9661 -6.46313 -18.9338
ltibia 33.9388
lfoot -17.8497 -8.59459
ltoes 4.97981
172
root 11.9761 17.626 -12.9748 -125.341 87.5767 -123.687
lowerback 12.1874 0.19727 -2.77313
upperback 1.3087 0.0208164 1.25042
thorax -5.46276 0.108987 2.87564
lowerneck -12.2843 -9.37494 -13.5159
upperneck 33.0954 -14.0727 14.1913
head 15.9417 -5.59667 6.00857
rclavicle 1.10574e-015 -2.78299e-015
rhumerus -34.6485 -19.3887 -73.3481
rradius 34.2036
rwrist 3.72095
rhand -15.3887 8.18551
rfingers 7.12502
rthumb 10.7899 -21.5174
lclavicle 1.10574e-015 -2.78299e-015
lhumerus -31.9506 6.24819 83.514
lradius 25.9252
lwrist -9.0635
lhand -16.2533 25.1239
lfingers 7.12502
lthumb 9.95583 54.8684
rfemur -14.0748 -8.18545 25.1276
rtibia 39.6191
rfoot -19.4953 6.5605
rtoes 5.83532
lfemur -11.0195 -6.08584 -18.8064
ltibia 33.9643
lfoot -17.7294 -9.14966
ltoes 5.83841
173
root 11.9657 17.6196 -12.9228 -125.399 87.6794 -123.722
lowerback 12.3651 0.146594 -3.04719
upperback 1.35844 -0.0867185 1.23338
thorax -5.50096 0.0629151 3.03217
lowerneck -12.3253 -9.40195 -13.6869
upperneck 32.9324 -14.1554 14.4633
head 15.9381 -5.62737 6.13364
rclavicle 2.85753e-016 -3.97569e-015
rhumerus -34.6767 -19.8335 -73.4197
rradius 34.3
rwrist 3.75507
rhand -15.6073 8.28846
rfingers 7.12502
rthumb 10.579 -21.4253
lclavicle 2.85753e-016 -3.97569e-015
lhumerus -31.66 6.0751 83.4984
lradius 25.6824
lwrist -9.11751
lhand -16.6333 25.4523
lfingers 7.12502
lthumb 9.5892 55.2141
rfemur -14.5172 -8.52239 25.0208
rtibia 40.3942
rfoot -19.6459 7.52928
rtoes 5.19945
lfemur -11.04 -5.93924 -18.6511
ltibia 33.942
lfoot -17.5373 -9.83217
ltoes 7.03565
174
root 11.9537 17.614 -12.8723 -123.778 87.8493 -122.09
lowerback 12.5197 0.137125 -3.2567
upperback 1.40988 -0.134865 1.15445
thorax -5.52851 0.0436551 3.0768
lowerneck -12.4086 -9.48525 -13.7638
upperneck 32.8243 -14.3103 14.6192
head 15.9649 -5.68702 6.17576
rclavicle -7.33018e-016 -5.96354e-015
rhumerus -34.7425 -20.3557 -73.5757
rradius 34.449
rwrist 3.83684
rhand -15.6294 8.48402
rfingers 7.12502
rthumb 10.5576 -21.2308
lclavicle -7.33018e-016 -5.96354e-015
lhumerus -31.3147 6.22455 83.3019
lradius 25.3315
lwrist -9.49991
lhand -16.5772 25.0513
lfingers 7.12502
lthumb 9.64327 54.8105
rfemur -14.9558 -8.84234 24.8364
rtibia 41.195
rfoot -19.8328 8.71452
rtoes 3.50605
lfemur -11.0551 -5.68881 -18.5362
ltibia 33.9018
lfoot -17.7104 -9.95068
ltoes 6.20203
